<svg viewBox="0 0 1006 400" xmlns="http://www.w3.org/2000/svg"><g><g><g><g><g><line x1="30.70800018310547" y1="377.95999908447266" x2="25.70800018310547" y2="377.95999908447266" style="visibility: inherit;" fill="rgb(0, 0, 0)" stroke="rgb(204, 204, 204)" stroke-width="1px"></line><line x1="30.70800018310547" y1="348.8861530010517" x2="25.70800018310547" y2="348.8861530010517" style="visibility: inherit;" fill="rgb(0, 0, 0)" stroke="rgb(204, 204, 204)" stroke-width="1px"></line><line x1="30.70800018310547" y1="319.8123069176307" x2="25.70800018310547" y2="319.8123069176307" style="visibility: inherit;" fill="rgb(0, 0, 0)" stroke="rgb(204, 204, 204)" stroke-width="1px"></line><line x1="30.70800018310547" y1="290.7384608342097" x2="25.70800018310547" y2="290.7384608342097" style="visibility: inherit;" fill="rgb(0, 0, 0)" stroke="rgb(204, 204, 204)" stroke-width="1px"></line><line x1="30.70800018310547" y1="261.66461475078876" x2="25.70800018310547" y2="261.66461475078876" style="visibility: inherit;" fill="rgb(0, 0, 0)" stroke="rgb(204, 204, 204)" stroke-width="1px"></line><line x1="30.70800018310547" y1="232.5907686673678" x2="25.70800018310547" y2="232.5907686673678" style="visibility: inherit;" fill="rgb(0, 0, 0)" stroke="rgb(204, 204, 204)" stroke-width="1px"></line><line x1="30.70800018310547" y1="203.5169225839468" x2="25.70800018310547" y2="203.5169225839468" style="visibility: inherit;" fill="rgb(0, 0, 0)" stroke="rgb(204, 204, 204)" stroke-width="1px"></line><line x1="30.70800018310547" y1="174.44307650052585" x2="25.70800018310547" y2="174.44307650052585" style="visibility: inherit;" fill="rgb(0, 0, 0)" stroke="rgb(204, 204, 204)" stroke-width="1px"></line><line x1="30.70800018310547" y1="145.36923041710486" x2="25.70800018310547" y2="145.36923041710486" style="visibility: inherit;" fill="rgb(0, 0, 0)" stroke="rgb(204, 204, 204)" stroke-width="1px"></line><line x1="30.70800018310547" y1="116.2953843336839" x2="25.70800018310547" y2="116.2953843336839" style="visibility: inherit;" fill="rgb(0, 0, 0)" stroke="rgb(204, 204, 204)" stroke-width="1px"></line><line x1="30.70800018310547" y1="87.22153825026291" x2="25.70800018310547" y2="87.22153825026291" style="visibility: inherit;" fill="rgb(0, 0, 0)" stroke="rgb(204, 204, 204)" stroke-width="1px"></line><line x1="30.70800018310547" y1="58.14769216684195" x2="25.70800018310547" y2="58.14769216684195" style="visibility: inherit;" fill="rgb(0, 0, 0)" stroke="rgb(204, 204, 204)" stroke-width="1px"></line><line x1="30.70800018310547" y1="29.073846083420953" x2="25.70800018310547" y2="29.073846083420953" style="visibility: inherit;" fill="rgb(0, 0, 0)" stroke="rgb(204, 204, 204)" stroke-width="1px"></line><line x1="30.70800018310547" y1="0" x2="25.70800018310547" y2="0" style="visibility: inherit;" fill="rgb(0, 0, 0)" stroke="rgb(204, 204, 204)" stroke-width="1px"></line></g><g transform="translate(20.70800018310547, 0)"><text style="text-anchor: end; visibility: hidden; font-family: Roboto, sans-serif; font-size: 12px; font-weight: 200;" x="0" y="377.95999908447266" dx="0em" dy="0.3em" fill="rgb(50, 49, 63)" stroke="none" stroke-width="1px">-1</text><text style="text-anchor: end; visibility: inherit; font-family: Roboto, sans-serif; font-size: 12px; font-weight: 200;" x="0" y="348.8861530010517" dx="0em" dy="0.3em" fill="rgb(50, 49, 63)" stroke="none" stroke-width="1px">0</text><text style="text-anchor: end; visibility: inherit; font-family: Roboto, sans-serif; font-size: 12px; font-weight: 200;" x="0" y="319.8123069176307" dx="0em" dy="0.3em" fill="rgb(50, 49, 63)" stroke="none" stroke-width="1px">1</text><text style="text-anchor: end; visibility: inherit; font-family: Roboto, sans-serif; font-size: 12px; font-weight: 200;" x="0" y="290.7384608342097" dx="0em" dy="0.3em" fill="rgb(50, 49, 63)" stroke="none" stroke-width="1px">2</text><text style="text-anchor: end; visibility: inherit; font-family: Roboto, sans-serif; font-size: 12px; font-weight: 200;" x="0" y="261.66461475078876" dx="0em" dy="0.3em" fill="rgb(50, 49, 63)" stroke="none" stroke-width="1px">3</text><text style="text-anchor: end; visibility: inherit; font-family: Roboto, sans-serif; font-size: 12px; font-weight: 200;" x="0" y="232.5907686673678" dx="0em" dy="0.3em" fill="rgb(50, 49, 63)" stroke="none" stroke-width="1px">4</text><text style="text-anchor: end; visibility: inherit; font-family: Roboto, sans-serif; font-size: 12px; font-weight: 200;" x="0" y="203.5169225839468" dx="0em" dy="0.3em" fill="rgb(50, 49, 63)" stroke="none" stroke-width="1px">5</text><text style="text-anchor: end; visibility: inherit; font-family: Roboto, sans-serif; font-size: 12px; font-weight: 200;" x="0" y="174.44307650052585" dx="0em" dy="0.3em" fill="rgb(50, 49, 63)" stroke="none" stroke-width="1px">6</text><text style="text-anchor: end; visibility: inherit; font-family: Roboto, sans-serif; font-size: 12px; font-weight: 200;" x="0" y="145.36923041710486" dx="0em" dy="0.3em" fill="rgb(50, 49, 63)" stroke="none" stroke-width="1px">7</text><text style="text-anchor: end; visibility: inherit; font-family: Roboto, sans-serif; font-size: 12px; font-weight: 200;" x="0" y="116.2953843336839" dx="0em" dy="0.3em" fill="rgb(50, 49, 63)" stroke="none" stroke-width="1px">8</text><text style="text-anchor: end; visibility: inherit; font-family: Roboto, sans-serif; font-size: 12px; font-weight: 200;" x="0" y="87.22153825026291" dx="0em" dy="0.3em" fill="rgb(50, 49, 63)" stroke="none" stroke-width="1px">9</text><text style="text-anchor: end; visibility: inherit; font-family: Roboto, sans-serif; font-size: 12px; font-weight: 200;" x="0" y="58.14769216684195" dx="0em" dy="0.3em" fill="rgb(50, 49, 63)" stroke="none" stroke-width="1px">10</text><text style="text-anchor: end; visibility: inherit; font-family: Roboto, sans-serif; font-size: 12px; font-weight: 200;" x="0" y="29.073846083420953" dx="0em" dy="0.3em" fill="rgb(50, 49, 63)" stroke="none" stroke-width="1px">11</text><text style="text-anchor: end; visibility: hidden; font-family: Roboto, sans-serif; font-size: 12px; font-weight: 200;" x="0" y="0" dx="0em" dy="0.3em" fill="rgb(50, 49, 63)" stroke="none" stroke-width="1px">12</text></g><line x1="30.70800018310547" y1="0" x2="30.70800018310547" y2="377.95999908447266" fill="rgb(0, 0, 0)" stroke="rgb(204, 204, 204)" stroke-width="1px"></line></g></g><g transform="translate(30, 0)" clip-path="url(#clip_0)"><clipPath id="clip_0"><rect width="975" height="377"></rect></clipPath><g><g><g><line x1="0" y1="0" x2="0" y2="377.95999908447266" fill="rgb(0, 0, 0)" stroke="rgb(60, 60, 60)" stroke-width="1px" opacity="0.25"></line><line x1="81.27433331807454" y1="0" x2="81.27433331807454" y2="377.95999908447266" fill="rgb(0, 0, 0)" stroke="rgb(60, 60, 60)" stroke-width="1px" opacity="0.25"></line><line x1="162.54866663614908" y1="0" x2="162.54866663614908" y2="377.95999908447266" fill="rgb(0, 0, 0)" stroke="rgb(60, 60, 60)" stroke-width="1px" opacity="0.25"></line><line x1="243.82299995422363" y1="0" x2="243.82299995422363" y2="377.95999908447266" fill="rgb(0, 0, 0)" stroke="rgb(60, 60, 60)" stroke-width="1px" opacity="0.25"></line><line x1="325.09733327229816" y1="0" x2="325.09733327229816" y2="377.95999908447266" fill="rgb(0, 0, 0)" stroke="rgb(60, 60, 60)" stroke-width="1px" opacity="0.25"></line><line x1="406.37166659037274" y1="0" x2="406.37166659037274" y2="377.95999908447266" fill="rgb(0, 0, 0)" stroke="rgb(60, 60, 60)" stroke-width="1px" opacity="0.25"></line><line x1="487.64599990844727" y1="0" x2="487.64599990844727" y2="377.95999908447266" fill="rgb(0, 0, 0)" stroke="rgb(60, 60, 60)" stroke-width="1px" opacity="0.25"></line><line x1="568.9203332265218" y1="0" x2="568.9203332265218" y2="377.95999908447266" fill="rgb(0, 0, 0)" stroke="rgb(60, 60, 60)" stroke-width="1px" opacity="0.25"></line><line x1="650.1946665445963" y1="0" x2="650.1946665445963" y2="377.95999908447266" fill="rgb(0, 0, 0)" stroke="rgb(60, 60, 60)" stroke-width="1px" opacity="0.25"></line><line x1="731.4689998626709" y1="0" x2="731.4689998626709" y2="377.95999908447266" fill="rgb(0, 0, 0)" stroke="rgb(60, 60, 60)" stroke-width="1px" opacity="0.25"></line><line x1="812.7433331807455" y1="0" x2="812.7433331807455" y2="377.95999908447266" fill="rgb(0, 0, 0)" stroke="rgb(60, 60, 60)" stroke-width="1px" opacity="0.25"></line><line x1="894.01766649882" y1="0" x2="894.01766649882" y2="377.95999908447266" fill="rgb(0, 0, 0)" stroke="rgb(60, 60, 60)" stroke-width="1px" opacity="0.25"></line><line x1="975.2919998168945" y1="0" x2="975.2919998168945" y2="377.95999908447266" fill="rgb(0, 0, 0)" stroke="rgb(60, 60, 60)" stroke-width="1px" opacity="0.25"></line></g><g><line x1="0" y1="377.95999908447266" x2="975.2919998168945" y2="377.95999908447266" fill="rgb(0, 0, 0)" stroke="rgb(60, 60, 60)" stroke-width="1px" opacity="0.25"></line><line x1="0" y1="348.8861530010517" x2="975.2919998168945" y2="348.8861530010517" fill="rgb(0, 0, 0)" stroke="rgb(60, 60, 60)" stroke-width="1px" opacity="0.25"></line><line x1="0" y1="319.8123069176307" x2="975.2919998168945" y2="319.8123069176307" fill="rgb(0, 0, 0)" stroke="rgb(60, 60, 60)" stroke-width="1px" opacity="0.25"></line><line x1="0" y1="290.7384608342097" x2="975.2919998168945" y2="290.7384608342097" fill="rgb(0, 0, 0)" stroke="rgb(60, 60, 60)" stroke-width="1px" opacity="0.25"></line><line x1="0" y1="261.66461475078876" x2="975.2919998168945" y2="261.66461475078876" fill="rgb(0, 0, 0)" stroke="rgb(60, 60, 60)" stroke-width="1px" opacity="0.25"></line><line x1="0" y1="232.5907686673678" x2="975.2919998168945" y2="232.5907686673678" fill="rgb(0, 0, 0)" stroke="rgb(60, 60, 60)" stroke-width="1px" opacity="0.25"></line><line x1="0" y1="203.5169225839468" x2="975.2919998168945" y2="203.5169225839468" fill="rgb(0, 0, 0)" stroke="rgb(60, 60, 60)" stroke-width="1px" opacity="0.25"></line><line x1="0" y1="174.44307650052585" x2="975.2919998168945" y2="174.44307650052585" fill="rgb(0, 0, 0)" stroke="rgb(60, 60, 60)" stroke-width="1px" opacity="0.25"></line><line x1="0" y1="145.36923041710486" x2="975.2919998168945" y2="145.36923041710486" fill="rgb(0, 0, 0)" stroke="rgb(60, 60, 60)" stroke-width="1px" opacity="0.25"></line><line x1="0" y1="116.2953843336839" x2="975.2919998168945" y2="116.2953843336839" fill="rgb(0, 0, 0)" stroke="rgb(60, 60, 60)" stroke-width="1px" opacity="0.25"></line><line x1="0" y1="87.22153825026291" x2="975.2919998168945" y2="87.22153825026291" fill="rgb(0, 0, 0)" stroke="rgb(60, 60, 60)" stroke-width="1px" opacity="0.25"></line><line x1="0" y1="58.14769216684195" x2="975.2919998168945" y2="58.14769216684195" fill="rgb(0, 0, 0)" stroke="rgb(60, 60, 60)" stroke-width="1px" opacity="0.25"></line><line x1="0" y1="29.073846083420953" x2="975.2919998168945" y2="29.073846083420953" fill="rgb(0, 0, 0)" stroke="rgb(60, 60, 60)" stroke-width="1px" opacity="0.25"></line><line x1="0" y1="0" x2="975.2919998168945" y2="0" fill="rgb(0, 0, 0)" stroke="rgb(60, 60, 60)" stroke-width="1px" opacity="0.25"></line></g></g></g><g><g><line x1="0" y1="348.8861530010517" x2="975.2919998168945" y2="348.8861530010517" fill="rgb(0, 0, 0)" stroke="rgb(153, 153, 153)" stroke-width="1.5px"></line></g></g><g><g><line x1="81.27433331807454" y1="0" x2="81.27433331807454" y2="377.95999908447266" fill="rgb(0, 0, 0)" stroke="rgb(153, 153, 153)" stroke-width="1.5px"></line></g></g><g><g><g><g><g><path style="fill: none;" stroke="rgb(0, 119, 187)" stroke-width="2px" d="M81.27433331807454,263.39636569043813L97.52919998168946,252.12743205885974L113.78406664530436,258.93757938036504L130.03893330891927,257.027464811367L146.29379997253417,260.9238052962401L162.54866663614908,166.20461039143396L178.80353329976398,202.6677357424102L195.05839996337892,216.37864556109582L211.31326662699382,231.566371641715L227.56813329060873,240.25233486888683L243.82299995422363,235.24376557576608L260.07786661783854,239.31604545693432L276.33273328145344,242.9253942281669L292.58759994506835,228.37047595523018L308.84246660868325,225.24334739149964L325.09733327229816,224.9867589456942L341.35219993591306,214.05782662353886L357.60706659952797,214.56065921132196L373.86193326314293,212.4140952589105L390.11679992675784,211.63757808863454L406.37166659037274,213.09575878141277L422.62653325398765,205.57142939485615L438.88139991760255,206.04744165069187L455.13626658121746,191.44235100202775L471.39113324483236,157.47178973941553L487.64599990844727,168.38114568153736L503.9008665720622,183.22780891744588L520.1557332356771,122.37380680480807L536.410599899292,149.83585364712556L552.6654665629069,159.65379622211273L568.9203332265218,170.86404325137346L585.1751998901367,163.51151570371147L601.4300665537517,169.8613512900563L617.6849332173665,164.13054243733626L633.9397998809815,155.809347008767L650.1946665445963,134.13116510836105L666.4495332082113,139.3441096942941L682.7043998718261,148.71524378098368L698.9592665354411,163.16650529656405L715.2141331990559,159.9514432572396L731.4689998626709,150.99903992486898L747.7238665262859,160.31706927897497L763.9787331899007,163.69358806047302L780.2335998535157,165.853559278468L796.4884665171305,134.13449421757056L812.7433331807455,122.85930083251583L828.9981998443603,111.03677250625499L845.2530665079753,114.0292384970891L861.5079331715901,129.62724215192677L877.7627998352051,124.43256829563423" fill="none"></path></g><g><path style="fill: none;" stroke="rgb(255, 112, 67)" stroke-width="2px" d="M81.27433331807454,261.9828511670547L97.52919998168946,265.5618324533841L113.78406664530436,260.4702623430674L130.03893330891927,255.57320691757303L146.29379997253417,250.10062708192223L162.54866663614908,244.15866886131397L178.80353329976398,238.41135601518693L195.05839996337892,231.8776671169745L211.31326662699382,225.65371719872618L227.56813329060873,219.63583649808135L243.82299995422363,210.43929798497226L260.07786661783854,199.6221973506605L276.33273328145344,187.5039255801386L292.58759994506835,177.64992605546877L308.84246660868325,165.076620837825L325.09733327229816,151.3866010439819L341.35219993591306,141.58706246591748L357.60706659952797,132.26157621691846L373.86193326314293,123.0025968219562L390.11679992675784,114.28621295602693L406.37166659037274,105.16047222203424L422.62653325398765,99.06279900517606L438.88139991760255,90.11712426836016L455.13626658121746,87.13767895166087L471.39113324483236,86.62277044629522L487.64599990844727,82.67511972335463L503.9008665720622,81.66225123352201L520.1557332356771,73.70334964031511L536.410599899292,78.01546640567058L552.6654665629069,74.86199599959336L568.9203332265218,77.83797404954356L585.1751998901367,76.64040348938079L601.4300665537517,83.39536965664443L617.6849332173665,80.78850574702831L633.9397998809815,81.95978719108959L650.1946665445963,84.79525993649968L666.4495332082113,85.3130673126364L682.7043998718261,86.51393198714443L698.9592665354411,82.07653372386409L715.2141331990559,82.85653246919782L731.4689998626709,81.88963830304476L747.7238665262859,83.34437379743927L763.9787331899007,78.1227028256532L780.2335998535157,73.24964368665012L796.4884665171305,66.17601088064558L812.7433331807455,58.759720471967086L828.9981998443603,56.81379236436706L845.2530665079753,52.42678927368371L861.5079331715901,51.48454686796838L877.7627998352051,54.011669171738866" fill="none"></path></g></g></g></g><g opacity="0.2"><g><g><g><path style="fill: none;" stroke="rgb(0, 119, 187)" stroke-width="2px" d="M81.27433331807454,263.39636569043813L97.52919998168946,245.3660718799127L113.78406664530436,265.4753208090102L130.03893330891927,254.78117007822527L146.29379997253417,266.01086743329046L162.54866663614908,35.173864927921386L178.80353329976398,254.81058840431183L195.05839996337892,236.36928370147382L211.31326662699382,253.96531754671435L227.56813329060873,253.14997796433875L243.82299995422363,227.77633899094283L260.07786661783854,245.40230411140524L276.33273328145344,248.3276322350413L292.58759994506835,206.5666131459237L308.84246660868325,220.55633036814245L325.09733327229816,224.60205724303773L341.35219993591306,197.66905289819374L357.60706659952797,215.31478042385703L373.86193326314293,209.1945763377063L390.11679992675784,210.4728733099658L406.37166659037274,215.28294985048538L422.62653325398765,194.28518290628477L438.88139991760255,206.76145063641385L455.13626658121746,169.53488804025395L471.39113324483236,106.51618929370755L487.64599990844727,184.74513307130024L503.9008665720622,205.49776578276663L520.1557332356771,31.092897061078904L536.410599899292,191.02889861417526L552.6654665629069,174.38070465836594L568.9203332265218,187.67941007782457L585.1751998901367,152.4827258451254L601.4300665537517,179.38610391153074L617.6849332173665,155.53432956874224L633.9397998809815,143.3275542235312L650.1946665445963,101.61389281674704L666.4495332082113,147.1635264925409L682.7043998718261,162.77194482402606L698.9592665354411,184.84339748944416L715.2141331990559,155.12885020899725L731.4689998626709,137.5704349442637L747.7238665262859,174.2941132989237L763.9787331899007,168.75836623028283L780.2335998535157,169.09351610452498L796.4884665171305,86.55589663446713L812.7433331807455,105.94651075669165L828.9981998443603,93.30298001796976L845.2530665079753,118.51793748317226L861.5079331715901,153.02424763365792L877.7627998352051,116.6405575113005" fill="none"></path></g><g><path style="fill: none;" stroke="rgb(255, 112, 67)" stroke-width="2px" d="M81.27433331807454,261.98285116705466L97.52919998168946,267.7092212251818L113.78406664530436,255.58235503716338L130.03893330891927,249.81426973719164L146.29379997253417,242.9556268484966L162.54866663614908,235.9388015372533L178.80353329976398,230.19260668821966L195.05839996337892,222.35148597996746L211.31326662699382,216.47460000934203L227.56813329060873,210.69998500551222L243.82299995422363,196.72790214275722L260.07786661783854,183.45541258316175L276.33273328145344,169.3660861842551L292.58759994506835,162.88823177935774L308.84246660868325,146.23144245965887L325.09733327229816,130.8612266158357L341.35219993591306,126.8919014351265L357.60706659952797,118.27571458336837L373.86193326314293,109.11553824183198L390.11679992675784,101.21243386914395L406.37166659037274,91.47236159835526L422.62653325398765,89.91648982642351L438.88139991760255,76.69878877987895L455.13626658121746,82.66854627098206L471.39113324483236,85.85041134799619L487.64599990844727,76.7536604738707L503.9008665720622,80.14295109042612L520.1557332356771,61.765009469293354L536.410599899292,84.48363758163481L552.6654665629069,70.13179213335277L568.9203332265218,82.30194013760214L585.1751998901367,74.8440478874131L601.4300665537517,93.52781810113251L617.6849332173665,76.87821006932847L633.9397998809815,83.71670930684363L650.1946665445963,89.04846898149901L666.4495332082113,86.08977836883031L682.7043998718261,88.31522898775887L698.9592665354411,75.42043635365889L715.2141331990559,84.02653058459188L731.4689998626709,80.43929705575394L747.7238665262859,85.52647703728087L763.9787331899007,70.29019637174329L780.2335998535157,65.9400549802561L796.4884665171305,55.56556167347691L812.7433331807455,47.63528486010574L828.9981998443603,53.89490020314909L845.2530665079753,45.846284637904894L861.5079331715901,50.071183259427066L877.7627998352051,57.80235262734363" fill="none"></path></g></g></g></g></g></g><g transform="translate(30, 377)" clip-path="url(#clip_1)"><clipPath id="clip_1"><rect width="975" height="22"></rect></clipPath><g><g><line x1="0" y1="0" x2="0" y2="5" style="visibility: inherit;" fill="rgb(0, 0, 0)" stroke="rgb(204, 204, 204)" stroke-width="1px"></line><line x1="81.27433331807454" y1="0" x2="81.27433331807454" y2="5" style="visibility: inherit;" fill="rgb(0, 0, 0)" stroke="rgb(204, 204, 204)" stroke-width="1px"></line><line x1="162.54866663614908" y1="0" x2="162.54866663614908" y2="5" style="visibility: inherit;" fill="rgb(0, 0, 0)" stroke="rgb(204, 204, 204)" stroke-width="1px"></line><line x1="243.82299995422363" y1="0" x2="243.82299995422363" y2="5" style="visibility: inherit;" fill="rgb(0, 0, 0)" stroke="rgb(204, 204, 204)" stroke-width="1px"></line><line x1="325.09733327229816" y1="0" x2="325.09733327229816" y2="5" style="visibility: inherit;" fill="rgb(0, 0, 0)" stroke="rgb(204, 204, 204)" stroke-width="1px"></line><line x1="406.37166659037274" y1="0" x2="406.37166659037274" y2="5" style="visibility: inherit;" fill="rgb(0, 0, 0)" stroke="rgb(204, 204, 204)" stroke-width="1px"></line><line x1="487.64599990844727" y1="0" x2="487.64599990844727" y2="5" style="visibility: inherit;" fill="rgb(0, 0, 0)" stroke="rgb(204, 204, 204)" stroke-width="1px"></line><line x1="568.9203332265218" y1="0" x2="568.9203332265218" y2="5" style="visibility: inherit;" fill="rgb(0, 0, 0)" stroke="rgb(204, 204, 204)" stroke-width="1px"></line><line x1="650.1946665445963" y1="0" x2="650.1946665445963" y2="5" style="visibility: inherit;" fill="rgb(0, 0, 0)" stroke="rgb(204, 204, 204)" stroke-width="1px"></line><line x1="731.4689998626709" y1="0" x2="731.4689998626709" y2="5" style="visibility: inherit;" fill="rgb(0, 0, 0)" stroke="rgb(204, 204, 204)" stroke-width="1px"></line><line x1="812.7433331807455" y1="0" x2="812.7433331807455" y2="5" style="visibility: inherit;" fill="rgb(0, 0, 0)" stroke="rgb(204, 204, 204)" stroke-width="1px"></line><line x1="894.01766649882" y1="0" x2="894.01766649882" y2="5" style="visibility: inherit;" fill="rgb(0, 0, 0)" stroke="rgb(204, 204, 204)" stroke-width="1px"></line><line x1="975.2919998168945" y1="0" x2="975.2919998168945" y2="5" style="visibility: inherit;" fill="rgb(0, 0, 0)" stroke="rgb(204, 204, 204)" stroke-width="1px"></line></g><g transform="translate(0, 8)"><text style="text-anchor: middle; visibility: hidden; font-family: Roboto, sans-serif; font-size: 12px; font-weight: 200;" x="0" y="0" dx="0em" dy="0.95em" fill="rgb(50, 49, 63)" stroke="none" stroke-width="1px">-5</text><text style="text-anchor: middle; visibility: inherit; font-family: Roboto, sans-serif; font-size: 12px; font-weight: 200;" x="81.27433331807454" y="0" dx="0em" dy="0.95em" fill="rgb(50, 49, 63)" stroke="none" stroke-width="1px">0</text><text style="text-anchor: middle; visibility: inherit; font-family: Roboto, sans-serif; font-size: 12px; font-weight: 200;" x="162.54866663614908" y="0" dx="0em" dy="0.95em" fill="rgb(50, 49, 63)" stroke="none" stroke-width="1px">5</text><text style="text-anchor: middle; visibility: inherit; font-family: Roboto, sans-serif; font-size: 12px; font-weight: 200;" x="243.82299995422363" y="0" dx="0em" dy="0.95em" fill="rgb(50, 49, 63)" stroke="none" stroke-width="1px">10</text><text style="text-anchor: middle; visibility: inherit; font-family: Roboto, sans-serif; font-size: 12px; font-weight: 200;" x="325.09733327229816" y="0" dx="0em" dy="0.95em" fill="rgb(50, 49, 63)" stroke="none" stroke-width="1px">15</text><text style="text-anchor: middle; visibility: inherit; font-family: Roboto, sans-serif; font-size: 12px; font-weight: 200;" x="406.37166659037274" y="0" dx="0em" dy="0.95em" fill="rgb(50, 49, 63)" stroke="none" stroke-width="1px">20</text><text style="text-anchor: middle; visibility: inherit; font-family: Roboto, sans-serif; font-size: 12px; font-weight: 200;" x="487.64599990844727" y="0" dx="0em" dy="0.95em" fill="rgb(50, 49, 63)" stroke="none" stroke-width="1px">25</text><text style="text-anchor: middle; visibility: inherit; font-family: Roboto, sans-serif; font-size: 12px; font-weight: 200;" x="568.9203332265218" y="0" dx="0em" dy="0.95em" fill="rgb(50, 49, 63)" stroke="none" stroke-width="1px">30</text><text style="text-anchor: middle; visibility: inherit; font-family: Roboto, sans-serif; font-size: 12px; font-weight: 200;" x="650.1946665445963" y="0" dx="0em" dy="0.95em" fill="rgb(50, 49, 63)" stroke="none" stroke-width="1px">35</text><text style="text-anchor: middle; visibility: inherit; font-family: Roboto, sans-serif; font-size: 12px; font-weight: 200;" x="731.4689998626709" y="0" dx="0em" dy="0.95em" fill="rgb(50, 49, 63)" stroke="none" stroke-width="1px">40</text><text style="text-anchor: middle; visibility: inherit; font-family: Roboto, sans-serif; font-size: 12px; font-weight: 200;" x="812.7433331807455" y="0" dx="0em" dy="0.95em" fill="rgb(50, 49, 63)" stroke="none" stroke-width="1px">45</text><text style="text-anchor: middle; visibility: inherit; font-family: Roboto, sans-serif; font-size: 12px; font-weight: 200;" x="894.01766649882" y="0" dx="0em" dy="0.95em" fill="rgb(50, 49, 63)" stroke="none" stroke-width="1px">50</text><text style="text-anchor: middle; visibility: hidden; font-family: Roboto, sans-serif; font-size: 12px; font-weight: 200;" x="975.2919998168945" y="0" dx="0em" dy="0.95em" fill="rgb(50, 49, 63)" stroke="none" stroke-width="1px">55</text></g><line x1="0" y1="0" x2="975.2919998168945" y2="0" fill="rgb(0, 0, 0)" stroke="rgb(204, 204, 204)" stroke-width="1px"></line></g></g></g></g></svg>