<svg viewBox="0 0 1006 400" xmlns="http://www.w3.org/2000/svg"><g><g><g><g><g><line x1="61.77000045776367" y1="377.95999908447266" x2="56.77000045776367" y2="377.95999908447266" style="visibility: inherit;" fill="rgb(0, 0, 0)" stroke="rgb(204, 204, 204)" stroke-width="1px"></line><line x1="61.77000045776367" y1="335.9644436306424" x2="56.77000045776367" y2="335.9644436306424" style="visibility: inherit;" fill="rgb(0, 0, 0)" stroke="rgb(204, 204, 204)" stroke-width="1px"></line><line x1="61.77000045776367" y1="293.9688881768121" x2="56.77000045776367" y2="293.9688881768121" style="visibility: inherit;" fill="rgb(0, 0, 0)" stroke="rgb(204, 204, 204)" stroke-width="1px"></line><line x1="61.77000045776367" y1="251.9733327229818" x2="56.77000045776367" y2="251.9733327229818" style="visibility: inherit;" fill="rgb(0, 0, 0)" stroke="rgb(204, 204, 204)" stroke-width="1px"></line><line x1="61.77000045776367" y1="209.97777726915152" x2="56.77000045776367" y2="209.97777726915152" style="visibility: inherit;" fill="rgb(0, 0, 0)" stroke="rgb(204, 204, 204)" stroke-width="1px"></line><line x1="61.77000045776367" y1="167.98222181532122" x2="56.77000045776367" y2="167.98222181532122" style="visibility: inherit;" fill="rgb(0, 0, 0)" stroke="rgb(204, 204, 204)" stroke-width="1px"></line><line x1="61.77000045776367" y1="125.98666636149086" x2="56.77000045776367" y2="125.98666636149086" style="visibility: inherit;" fill="rgb(0, 0, 0)" stroke="rgb(204, 204, 204)" stroke-width="1px"></line><line x1="61.77000045776367" y1="83.99111090766067" x2="56.77000045776367" y2="83.99111090766067" style="visibility: inherit;" fill="rgb(0, 0, 0)" stroke="rgb(204, 204, 204)" stroke-width="1px"></line><line x1="61.77000045776367" y1="41.99555545383031" x2="56.77000045776367" y2="41.99555545383031" style="visibility: inherit;" fill="rgb(0, 0, 0)" stroke="rgb(204, 204, 204)" stroke-width="1px"></line><line x1="61.77000045776367" y1="0" x2="56.77000045776367" y2="0" style="visibility: inherit;" fill="rgb(0, 0, 0)" stroke="rgb(204, 204, 204)" stroke-width="1px"></line></g><g transform="translate(51.77000045776367, 0)"><text style="text-anchor: end; visibility: hidden; font-family: Roboto, sans-serif; font-size: 12px; font-weight: 200;" x="0" y="377.95999908447266" dx="0em" dy="0.3em" fill="rgb(50, 49, 63)" stroke="none" stroke-width="1px">0.04</text><text style="text-anchor: end; visibility: inherit; font-family: Roboto, sans-serif; font-size: 12px; font-weight: 200;" x="0" y="335.9644436306424" dx="0em" dy="0.3em" fill="rgb(50, 49, 63)" stroke="none" stroke-width="1px">0.045</text><text style="text-anchor: end; visibility: inherit; font-family: Roboto, sans-serif; font-size: 12px; font-weight: 200;" x="0" y="293.9688881768121" dx="0em" dy="0.3em" fill="rgb(50, 49, 63)" stroke="none" stroke-width="1px">0.05</text><text style="text-anchor: end; visibility: inherit; font-family: Roboto, sans-serif; font-size: 12px; font-weight: 200;" x="0" y="251.9733327229818" dx="0em" dy="0.3em" fill="rgb(50, 49, 63)" stroke="none" stroke-width="1px">0.055</text><text style="text-anchor: end; visibility: inherit; font-family: Roboto, sans-serif; font-size: 12px; font-weight: 200;" x="0" y="209.97777726915152" dx="0em" dy="0.3em" fill="rgb(50, 49, 63)" stroke="none" stroke-width="1px">0.06</text><text style="text-anchor: end; visibility: inherit; font-family: Roboto, sans-serif; font-size: 12px; font-weight: 200;" x="0" y="167.98222181532122" dx="0em" dy="0.3em" fill="rgb(50, 49, 63)" stroke="none" stroke-width="1px">0.065</text><text style="text-anchor: end; visibility: inherit; font-family: Roboto, sans-serif; font-size: 12px; font-weight: 200;" x="0" y="125.98666636149086" dx="0em" dy="0.3em" fill="rgb(50, 49, 63)" stroke="none" stroke-width="1px">0.07</text><text style="text-anchor: end; visibility: inherit; font-family: Roboto, sans-serif; font-size: 12px; font-weight: 200;" x="0" y="83.99111090766067" dx="0em" dy="0.3em" fill="rgb(50, 49, 63)" stroke="none" stroke-width="1px">0.075</text><text style="text-anchor: end; visibility: inherit; font-family: Roboto, sans-serif; font-size: 12px; font-weight: 200;" x="0" y="41.99555545383031" dx="0em" dy="0.3em" fill="rgb(50, 49, 63)" stroke="none" stroke-width="1px">0.08</text><text style="text-anchor: end; visibility: hidden; font-family: Roboto, sans-serif; font-size: 12px; font-weight: 200;" x="0" y="0" dx="0em" dy="0.3em" fill="rgb(50, 49, 63)" stroke="none" stroke-width="1px">0.085</text></g><line x1="61.77000045776367" y1="0" x2="61.77000045776367" y2="377.95999908447266" fill="rgb(0, 0, 0)" stroke="rgb(204, 204, 204)" stroke-width="1px"></line></g></g><g transform="translate(61, 0)" clip-path="url(#clip_0)"><clipPath id="clip_0"><rect width="944" height="377"></rect></clipPath><g><g><g><line x1="0" y1="0" x2="0" y2="377.95999908447266" fill="rgb(0, 0, 0)" stroke="rgb(60, 60, 60)" stroke-width="1px" opacity="0.25"></line><line x1="78.68583329518636" y1="0" x2="78.68583329518636" y2="377.95999908447266" fill="rgb(0, 0, 0)" stroke="rgb(60, 60, 60)" stroke-width="1px" opacity="0.25"></line><line x1="157.3716665903727" y1="0" x2="157.3716665903727" y2="377.95999908447266" fill="rgb(0, 0, 0)" stroke="rgb(60, 60, 60)" stroke-width="1px" opacity="0.25"></line><line x1="236.05749988555908" y1="0" x2="236.05749988555908" y2="377.95999908447266" fill="rgb(0, 0, 0)" stroke="rgb(60, 60, 60)" stroke-width="1px" opacity="0.25"></line><line x1="314.7433331807454" y1="0" x2="314.7433331807454" y2="377.95999908447266" fill="rgb(0, 0, 0)" stroke="rgb(60, 60, 60)" stroke-width="1px" opacity="0.25"></line><line x1="393.4291664759318" y1="0" x2="393.4291664759318" y2="377.95999908447266" fill="rgb(0, 0, 0)" stroke="rgb(60, 60, 60)" stroke-width="1px" opacity="0.25"></line><line x1="472.11499977111816" y1="0" x2="472.11499977111816" y2="377.95999908447266" fill="rgb(0, 0, 0)" stroke="rgb(60, 60, 60)" stroke-width="1px" opacity="0.25"></line><line x1="550.8008330663046" y1="0" x2="550.8008330663046" y2="377.95999908447266" fill="rgb(0, 0, 0)" stroke="rgb(60, 60, 60)" stroke-width="1px" opacity="0.25"></line><line x1="629.4866663614908" y1="0" x2="629.4866663614908" y2="377.95999908447266" fill="rgb(0, 0, 0)" stroke="rgb(60, 60, 60)" stroke-width="1px" opacity="0.25"></line><line x1="708.1724996566772" y1="0" x2="708.1724996566772" y2="377.95999908447266" fill="rgb(0, 0, 0)" stroke="rgb(60, 60, 60)" stroke-width="1px" opacity="0.25"></line><line x1="786.8583329518636" y1="0" x2="786.8583329518636" y2="377.95999908447266" fill="rgb(0, 0, 0)" stroke="rgb(60, 60, 60)" stroke-width="1px" opacity="0.25"></line><line x1="865.5441662470499" y1="0" x2="865.5441662470499" y2="377.95999908447266" fill="rgb(0, 0, 0)" stroke="rgb(60, 60, 60)" stroke-width="1px" opacity="0.25"></line><line x1="944.2299995422363" y1="0" x2="944.2299995422363" y2="377.95999908447266" fill="rgb(0, 0, 0)" stroke="rgb(60, 60, 60)" stroke-width="1px" opacity="0.25"></line></g><g><line x1="0" y1="377.95999908447266" x2="944.2299995422363" y2="377.95999908447266" fill="rgb(0, 0, 0)" stroke="rgb(60, 60, 60)" stroke-width="1px" opacity="0.25"></line><line x1="0" y1="335.9644436306424" x2="944.2299995422363" y2="335.9644436306424" fill="rgb(0, 0, 0)" stroke="rgb(60, 60, 60)" stroke-width="1px" opacity="0.25"></line><line x1="0" y1="293.9688881768121" x2="944.2299995422363" y2="293.9688881768121" fill="rgb(0, 0, 0)" stroke="rgb(60, 60, 60)" stroke-width="1px" opacity="0.25"></line><line x1="0" y1="251.9733327229818" x2="944.2299995422363" y2="251.9733327229818" fill="rgb(0, 0, 0)" stroke="rgb(60, 60, 60)" stroke-width="1px" opacity="0.25"></line><line x1="0" y1="209.97777726915152" x2="944.2299995422363" y2="209.97777726915152" fill="rgb(0, 0, 0)" stroke="rgb(60, 60, 60)" stroke-width="1px" opacity="0.25"></line><line x1="0" y1="167.98222181532122" x2="944.2299995422363" y2="167.98222181532122" fill="rgb(0, 0, 0)" stroke="rgb(60, 60, 60)" stroke-width="1px" opacity="0.25"></line><line x1="0" y1="125.98666636149086" x2="944.2299995422363" y2="125.98666636149086" fill="rgb(0, 0, 0)" stroke="rgb(60, 60, 60)" stroke-width="1px" opacity="0.25"></line><line x1="0" y1="83.99111090766067" x2="944.2299995422363" y2="83.99111090766067" fill="rgb(0, 0, 0)" stroke="rgb(60, 60, 60)" stroke-width="1px" opacity="0.25"></line><line x1="0" y1="41.99555545383031" x2="944.2299995422363" y2="41.99555545383031" fill="rgb(0, 0, 0)" stroke="rgb(60, 60, 60)" stroke-width="1px" opacity="0.25"></line><line x1="0" y1="0" x2="944.2299995422363" y2="0" fill="rgb(0, 0, 0)" stroke="rgb(60, 60, 60)" stroke-width="1px" opacity="0.25"></line></g></g></g><g><g><line x1="0" y1="713.924442715115" x2="944.2299995422363" y2="713.924442715115" fill="rgb(0, 0, 0)" stroke="rgb(153, 153, 153)" stroke-width="1.5px"></line></g></g><g><g><line x1="78.68583329518636" y1="0" x2="78.68583329518636" y2="377.95999908447266" fill="rgb(0, 0, 0)" stroke="rgb(153, 153, 153)" stroke-width="1.5px"></line></g></g><g><g><g><g><g><path style="fill: none;" stroke="rgb(0, 119, 187)" stroke-width="2px" d="M78.68583329518636,136.78616864211065L94.42299995422364,52.07363403140769L110.16016661326091,56.25627593776006L125.89733327229817,73.17138626176158L141.63449993133545,110.24462420888325L157.3716665903727,125.049790834903L173.10883324940997,128.97989108913046L188.84599990844728,147.27536025534673L204.58316656748454,181.02118435353475L220.32033322652183,223.92377025623918L236.05749988555908,239.84470091487896L251.79466654459634,215.1821795976037L267.5318332036336,216.1797877342312L283.2689998626709,251.78302744774618L299.00616652170817,216.26100403063677L314.7433331807454,250.93919665184367L330.4804998397827,252.49864853335737L346.21766649881994,252.55960588250048L361.9548331578573,235.10607801336155L377.69199981689457,264.8609013324793L393.4291664759318,245.98530375664228L409.1663331349691,210.17524489311634L424.90349979400634,265.64188465443186L440.64066645304365,281.43246024044265L456.3778331120809,292.65567469316585L472.11499977111816,301.1384854263156L487.8521664301555,259.8821595401612L503.5893330891927,281.47437512404235L519.32649974823,291.8063395148018L535.0636664072672,278.7675669048032L550.8008330663046,267.44650572103643L566.5379997253418,254.53270246361512L582.2751663843791,308.8705128028982L598.0123330434163,280.2615504126484L613.7494997024536,282.3341183888498L629.4866663614908,279.20540410056395L645.2238330205282,323.6741314655318L660.9609996795654,308.3816669281671L676.6981663386027,302.7039997641588L692.4353329976399,308.916378022054L708.1724996566772,316.1416039729069L723.9096663157146,343.212495619969L739.6468329747518,341.09154204700627L755.3839996337891,321.4554688372282L771.1211662928263,282.5658138352958L786.8583329518636,325.6903770338589L802.5954996109009,313.9636818472661L818.3326662699382,341.90574233218456L834.0698329289754,314.9483784984725L849.8069995880127,313.63963723188203" fill="none"></path></g><g><path style="fill: none;" stroke="rgb(255, 112, 67)" stroke-width="2px" d="M125.89733327229817,-35.90493834499244L141.63449993133545,60.81902797448928L157.3716665903727,128.77677596007956L173.10883324940997,148.1413226022371L188.84599990844728,168.95838203379782L204.58316656748454,188.81166592426703L220.32033322652183,202.10647845918643L236.05749988555908,229.63566570200908L251.79466654459634,248.72426778046173L267.5318332036336,254.5089741318794L283.2689998626709,251.96014220828545L299.00616652170817,238.03046491600077L314.7433331807454,249.9666531405066L330.4804998397827,248.86092759368884L346.21766649881994,266.2297402951623L361.9548331578573,264.25331752107746L377.69199981689457,263.4431869004206L393.4291664759318,274.2263039956308L409.1663331349691,262.66550116314255L424.90349979400634,260.9879845446377L440.64066645304365,267.8697721909561L456.3778331120809,272.37445720536857L472.11499977111816,271.3209438435529L487.8521664301555,258.2929983057313L503.5893330891927,273.0141244712999L519.32649974823,257.8063980157957L535.0636664072672,267.8389510240843L550.8008330663046,273.48284913154646L566.5379997253418,270.1078319023739L582.2751663843791,271.46349943641854L598.0123330434163,275.65757755048116L613.7494997024536,274.7933467456904L629.4866663614908,278.78238254164256L645.2238330205282,272.1606554914392L660.9609996795654,265.55820619598694L676.6981663386027,281.8808144244854L692.4353329976399,274.770979109033L708.1724996566772,279.89584609158214L723.9096663157146,278.8388242818736L739.6468329747518,276.70209479876564L755.3839996337891,283.68394109996524L771.1211662928263,296.88819732649847L786.8583329518636,297.6737512408252L802.5954996109009,283.1198445231774L818.3326662699382,289.41273955892484L834.0698329289754,285.6758570473566L849.8069995880127,289.44383067614694" fill="none"></path></g></g></g></g><g opacity="0.2"><g><g><g><path style="fill: none;" stroke="rgb(0, 119, 187)" stroke-width="2px" d="M78.68583329518636,136.78616864211065L94.42299995422364,1.2461132649861315L110.16016661326091,60.271612167858315L125.89733327229817,93.06355600278731L141.63449993133545,158.6474436726453L157.3716665903727,145.53066613867367L173.10883324940997,134.59999733427932L188.84599990844728,173.9503299361941L204.58316656748454,230.78972010948905L220.32033322652183,287.62911028278404L236.05749988555908,263.58169523354513L251.79466654459634,178.32260997360268L267.5318332036336,217.67294257551748L283.2689998626709,305.1181365650371L299.00616652170817,163.01972371005385L314.7433331807454,302.9320278354599L330.4804998397827,254.837166447855L346.21766649881994,252.65102642915076L361.9548331578573,208.92844507895444L377.69199981689457,309.4904166024457L393.4291664759318,217.67294257551748L409.1663331349691,156.46133494306804L424.90349979400634,348.84074920436046L440.64066645304365,305.1181365650371L456.3778331120809,309.4904166024457L472.11499977111816,313.8626653507272L487.8521664301555,197.99777627456007L503.5893330891927,313.8626653507272L519.32649974823,307.3042765837414L535.0636664072672,259.20941519613655L550.8008330663046,250.4649176995735L566.5379997253418,235.16200014689764L582.2751663843791,390.37722182497953L598.0123330434163,237.34810887647484L613.7494997024536,285.44297026407975L629.4866663614908,274.5123327488124L645.2238330205282,390.37722182497953L660.9609996795654,285.44297026407975L676.6981663386027,294.1874990497698L692.4353329976399,318.23494538813577L708.1724996566772,326.9794428846988L723.9096663157146,383.81883305799374L739.6468329747518,337.9101116890932L755.3839996337891,292.00135903106553L771.1211662928263,224.23133134250327L786.8583329518636,390.37722182497953L802.5954996109009,296.37363906847406L818.3326662699382,383.81883305799374L834.0698329289754,274.5123327488124L849.8069995880127,311.67652533202295" fill="none"></path></g><g><path style="fill: none;" stroke="rgb(255, 112, 67)" stroke-width="2px" d="M94.42299995422364,-349.11150903961L110.16016661326091,41.5448193081542L125.89733327229817,63.14357856263751L141.63449993133545,187.10183840120465L157.3716665903727,222.7868062134257L173.10883324940997,175.83293413326862L188.84599990844728,199.3098545287836L204.58316656748454,218.09140336084647L220.32033322652183,221.84772564290984L236.05749988555908,270.67975886409863L251.79466654459634,277.2532915685825L267.5318332036336,263.1671455890989L283.2689998626709,248.1418877499724L299.00616652170817,217.15232279033057L314.7433331807454,267.86251715255105L330.4804998397827,247.20280717945656L346.21766649881994,292.27854940770897L361.9548331578573,261.2889844480672L377.69199981689457,262.22806501858304L393.4291664759318,290.4003882666773L409.1663331349691,245.3246773275519L424.90349979400634,258.4717427365197L440.64066645304365,278.1923721390983L456.3778331120809,279.13145270961417L472.11499977111816,269.74067829358273L487.8521664301555,238.75111333394096L503.5893330891927,295.09579111925655L519.32649974823,234.99482234100464L535.0636664072672,282.8877749916776L550.8008330663046,281.9486944211617L566.5379997253418,265.0453067301306L582.2751663843791,273.49700057564615L598.0123330434163,281.9486944211617L613.7494997024536,273.49700057564615L629.4866663614908,284.76593613270927L645.2238330205282,262.22806501858304L660.9609996795654,255.65453231409913L676.6981663386027,306.3647266763196L692.4353329976399,264.1062261596147L708.1724996566772,287.58314655512976L723.9096663157146,277.2532915685825L739.6468329747518,273.49700057564615L755.3839996337891,294.15671054874065L771.1211662928263,316.6945816628669L786.8583329518636,298.8520821121929L802.5954996109009,261.2889844480672L818.3326662699382,298.8520821121929L834.0698329289754,280.07053328013L849.8069995880127,295.09579111925655" fill="none"></path></g></g></g></g></g></g><g transform="translate(61, 377)" clip-path="url(#clip_1)"><clipPath id="clip_1"><rect width="944" height="22"></rect></clipPath><g><g><line x1="0" y1="0" x2="0" y2="5" style="visibility: inherit;" fill="rgb(0, 0, 0)" stroke="rgb(204, 204, 204)" stroke-width="1px"></line><line x1="78.68583329518636" y1="0" x2="78.68583329518636" y2="5" style="visibility: inherit;" fill="rgb(0, 0, 0)" stroke="rgb(204, 204, 204)" stroke-width="1px"></line><line x1="157.3716665903727" y1="0" x2="157.3716665903727" y2="5" style="visibility: inherit;" fill="rgb(0, 0, 0)" stroke="rgb(204, 204, 204)" stroke-width="1px"></line><line x1="236.05749988555908" y1="0" x2="236.05749988555908" y2="5" style="visibility: inherit;" fill="rgb(0, 0, 0)" stroke="rgb(204, 204, 204)" stroke-width="1px"></line><line x1="314.7433331807454" y1="0" x2="314.7433331807454" y2="5" style="visibility: inherit;" fill="rgb(0, 0, 0)" stroke="rgb(204, 204, 204)" stroke-width="1px"></line><line x1="393.4291664759318" y1="0" x2="393.4291664759318" y2="5" style="visibility: inherit;" fill="rgb(0, 0, 0)" stroke="rgb(204, 204, 204)" stroke-width="1px"></line><line x1="472.11499977111816" y1="0" x2="472.11499977111816" y2="5" style="visibility: inherit;" fill="rgb(0, 0, 0)" stroke="rgb(204, 204, 204)" stroke-width="1px"></line><line x1="550.8008330663046" y1="0" x2="550.8008330663046" y2="5" style="visibility: inherit;" fill="rgb(0, 0, 0)" stroke="rgb(204, 204, 204)" stroke-width="1px"></line><line x1="629.4866663614908" y1="0" x2="629.4866663614908" y2="5" style="visibility: inherit;" fill="rgb(0, 0, 0)" stroke="rgb(204, 204, 204)" stroke-width="1px"></line><line x1="708.1724996566772" y1="0" x2="708.1724996566772" y2="5" style="visibility: inherit;" fill="rgb(0, 0, 0)" stroke="rgb(204, 204, 204)" stroke-width="1px"></line><line x1="786.8583329518636" y1="0" x2="786.8583329518636" y2="5" style="visibility: inherit;" fill="rgb(0, 0, 0)" stroke="rgb(204, 204, 204)" stroke-width="1px"></line><line x1="865.5441662470499" y1="0" x2="865.5441662470499" y2="5" style="visibility: inherit;" fill="rgb(0, 0, 0)" stroke="rgb(204, 204, 204)" stroke-width="1px"></line><line x1="944.2299995422363" y1="0" x2="944.2299995422363" y2="5" style="visibility: inherit;" fill="rgb(0, 0, 0)" stroke="rgb(204, 204, 204)" stroke-width="1px"></line></g><g transform="translate(0, 8)"><text style="text-anchor: middle; visibility: hidden; font-family: Roboto, sans-serif; font-size: 12px; font-weight: 200;" x="0" y="0" dx="0em" dy="0.95em" fill="rgb(50, 49, 63)" stroke="none" stroke-width="1px">-5</text><text style="text-anchor: middle; visibility: inherit; font-family: Roboto, sans-serif; font-size: 12px; font-weight: 200;" x="78.68583329518636" y="0" dx="0em" dy="0.95em" fill="rgb(50, 49, 63)" stroke="none" stroke-width="1px">0</text><text style="text-anchor: middle; visibility: inherit; font-family: Roboto, sans-serif; font-size: 12px; font-weight: 200;" x="157.3716665903727" y="0" dx="0em" dy="0.95em" fill="rgb(50, 49, 63)" stroke="none" stroke-width="1px">5</text><text style="text-anchor: middle; visibility: inherit; font-family: Roboto, sans-serif; font-size: 12px; font-weight: 200;" x="236.05749988555908" y="0" dx="0em" dy="0.95em" fill="rgb(50, 49, 63)" stroke="none" stroke-width="1px">10</text><text style="text-anchor: middle; visibility: inherit; font-family: Roboto, sans-serif; font-size: 12px; font-weight: 200;" x="314.7433331807454" y="0" dx="0em" dy="0.95em" fill="rgb(50, 49, 63)" stroke="none" stroke-width="1px">15</text><text style="text-anchor: middle; visibility: inherit; font-family: Roboto, sans-serif; font-size: 12px; font-weight: 200;" x="393.4291664759318" y="0" dx="0em" dy="0.95em" fill="rgb(50, 49, 63)" stroke="none" stroke-width="1px">20</text><text style="text-anchor: middle; visibility: inherit; font-family: Roboto, sans-serif; font-size: 12px; font-weight: 200;" x="472.11499977111816" y="0" dx="0em" dy="0.95em" fill="rgb(50, 49, 63)" stroke="none" stroke-width="1px">25</text><text style="text-anchor: middle; visibility: inherit; font-family: Roboto, sans-serif; font-size: 12px; font-weight: 200;" x="550.8008330663046" y="0" dx="0em" dy="0.95em" fill="rgb(50, 49, 63)" stroke="none" stroke-width="1px">30</text><text style="text-anchor: middle; visibility: inherit; font-family: Roboto, sans-serif; font-size: 12px; font-weight: 200;" x="629.4866663614908" y="0" dx="0em" dy="0.95em" fill="rgb(50, 49, 63)" stroke="none" stroke-width="1px">35</text><text style="text-anchor: middle; visibility: inherit; font-family: Roboto, sans-serif; font-size: 12px; font-weight: 200;" x="708.1724996566772" y="0" dx="0em" dy="0.95em" fill="rgb(50, 49, 63)" stroke="none" stroke-width="1px">40</text><text style="text-anchor: middle; visibility: inherit; font-family: Roboto, sans-serif; font-size: 12px; font-weight: 200;" x="786.8583329518636" y="0" dx="0em" dy="0.95em" fill="rgb(50, 49, 63)" stroke="none" stroke-width="1px">45</text><text style="text-anchor: middle; visibility: inherit; font-family: Roboto, sans-serif; font-size: 12px; font-weight: 200;" x="865.5441662470499" y="0" dx="0em" dy="0.95em" fill="rgb(50, 49, 63)" stroke="none" stroke-width="1px">50</text><text style="text-anchor: middle; visibility: hidden; font-family: Roboto, sans-serif; font-size: 12px; font-weight: 200;" x="944.2299995422363" y="0" dx="0em" dy="0.95em" fill="rgb(50, 49, 63)" stroke="none" stroke-width="1px">55</text></g><line x1="0" y1="0" x2="944.2299995422363" y2="0" fill="rgb(0, 0, 0)" stroke="rgb(204, 204, 204)" stroke-width="1px"></line></g></g></g></g></svg>